<svg xmlns="http://www.w3.org/2000/svg" width="200" height="200" aria-label="five out of five" data-bbox="20 87.427 160 25.146" data-type="color" viewBox="20 87.427 160 25.146"><defs><style>#comp-lub3qlxy7 svg [data-color=&quot;1&quot;]{fill:#0a2323}</style></defs><path fill="#010203" d="m33.22 87.427 3.064 9.683 10.156-.078-8.263 5.906 3.213 9.635-8.17-6.033-8.17 6.033 3.212-9.635L20 97.032l10.156.078 3.064-9.683zM66.61 87.427l3.064 9.683 10.156-.078-8.263 5.906 3.213 9.635-8.17-6.033-8.17 6.033 3.212-9.635-8.262-5.906 10.156.078 3.064-9.683zM100 87.427l3.064 9.683 10.156-.078-8.263 5.906 3.213 9.635-8.17-6.033-8.17 6.033 3.213-9.635-8.263-5.906 10.156.078L100 87.427zM133.39 87.427l3.064 9.683 10.156-.078-8.262 5.906 3.212 9.635-8.17-6.033-8.17 6.033 3.213-9.635-8.263-5.906 10.156.078 3.064-9.683zM166.78 87.427l3.064 9.683L180 97.032l-8.262 5.906 3.212 9.635-8.17-6.033-8.17 6.033 3.213-9.635-8.263-5.906 10.156.078 3.064-9.683z" data-color="1"/></svg>