<svg xmlns="http://www.w3.org/2000/svg" width="200" height="200" aria-hidden="true" data-bbox="20 20 160 160" data-type="color" viewBox="20 20 160 160"><defs><style>#comp-lsiyr9wu1 svg [data-color=&quot;1&quot;]{fill:#fff9af}#comp-lsiyr9wu1 svg [data-color=&quot;2&quot;]{fill:#0a2323}</style></defs><path fill="#FFF7BD" d="M100 180c-44.187 0-80-35.813-80-80s35.813-80 80-80 80 35.813 80 80-35.813 80-80 80z" data-color="1"/><path fill="#000000" d="M105.594 115.65h11.581c.342 0 .622.282.622.626v20.174h-12.824v-20.174c0-.344.28-.626.621-.626z" data-color="2"/><path fill="#000000" d="M125.511 136.5H74.489a1.998 1.998 0 0 1-1.989-2.003V85.355c0-.607.267-1.177.74-1.559l23.727-19.229a4.842 4.842 0 0 1 6.067 0l23.727 19.229c.472.382.74.951.74 1.559v49.148a1.994 1.994 0 0 1-1.99 1.997zm-50.313-2.717h49.604V85.699l-23.46-19.016a2.13 2.13 0 0 0-2.679 0L75.198 85.699v48.084z" data-color="2"/></svg>