<svg xmlns="http://www.w3.org/2000/svg" width="200" height="200" aria-hidden="true" data-bbox="20 20 160 160" data-type="color" viewBox="20 20 160 160"><defs><style>#comp-lsiyr9wu svg [data-color=&quot;1&quot;]{fill:#fff9af}#comp-lsiyr9wu svg [data-color=&quot;2&quot;]{fill:#0a2323}</style></defs><path fill="#FFF7BD" d="M100 180c-44.187 0-80-35.813-80-80s35.813-80 80-80 80 35.813 80 80-35.813 80-80 80z" data-color="1"/><path fill="#000000" d="m68.047 123.249.949.814-.949-.814zm-.764 2.577-1.243.163 1.243-.163zm.88 6.577 1.243-.163-1.243.163zm3.339 2.848.02 1.248-.02-1.248zm6.692-.122-.02-1.248.02 1.248zm2.444-1.146.949.814-.949-.814zm8.399-9.71-.949-.814.949.814zm.724-1.445 1.222.264-1.222-.264zm.143-.671 1.229.264-1.229-.264zm1.755-2.028-.444-1.166.444 1.166zm1.755-2.027 1.229.264-1.229-.264zm1.748-2.035-.444-1.166.444 1.166zm.648-.237.444 1.166-.444-1.166zm1.332-.936-.949-.814.949.814zm6.029-6.971-.949-.814.949.814zm.546-.63-.949-.814.949.814zm1.987-.577.321-1.2-.321 1.2zM91.959 95.493l-1.127.549 1.127-.549zm39.528-9.398c0 11.101-9.061 20.093-20.232 20.093v2.489c12.557 0 22.744-10.111 22.744-22.588h-2.513v.006zm-20.231-20.1c11.178 0 20.232 8.999 20.232 20.093h2.506c0-12.471-10.181-22.588-22.744-22.588v2.495h.006zm-20.239 20.1c0-11.101 9.061-20.093 20.232-20.093v-2.489c-12.557 0-22.744 10.111-22.744 22.588h2.513v-.006zm2.062 8.849a19.952 19.952 0 0 1-2.062-8.849h-2.506c0 3.567.833 6.951 2.322 9.948l2.246-1.099zm-24.076 29.118 23.892-27.626-1.905-1.621-23.892 27.626 1.905 1.621zm-.478 1.594a2.039 2.039 0 0 1 .478-1.6l-1.905-1.621a4.503 4.503 0 0 0-1.058 3.547l2.485-.326zm.881 6.584-.888-6.584-2.485.332.888 6.585 2.485-.333zm2.076 1.77a2.052 2.052 0 0 1-2.076-1.77l-2.485.332a4.546 4.546 0 0 0 4.602 3.926l-.041-2.488zm6.685-.128-6.685.129.048 2.489 6.685-.129-.048-2.489zm1.522-.706a2.073 2.073 0 0 1-1.516.712l.048 2.489a4.575 4.575 0 0 0 3.373-1.58l-1.905-1.621zm8.392-9.71-8.399 9.711 1.905 1.621 8.399-9.711-1.905-1.621zm.451-.902a2.048 2.048 0 0 1-.451.902l1.905 1.621c.498-.576.84-1.261.997-2l-2.451-.523zm.143-.672-.143.671 2.451.522.143-.671-2.451-.522zm2.54-2.929a4.04 4.04 0 0 0-2.533 2.929l2.451.522c.109-.515.478-.936.976-1.126l-.894-2.325zm.97-1.126a1.555 1.555 0 0 1-.976 1.126l.888 2.326a4.04 4.04 0 0 0 2.533-2.929l-2.445-.523zm2.533-2.929a4.04 4.04 0 0 0-2.533 2.929l2.451.522c.109-.515.478-.936.976-1.126l-.894-2.325zm.649-.244-.649.244.888 2.326.649-.244-.888-2.326zm.826-.577a2.062 2.062 0 0 1-.826.576l.888 2.326a4.59 4.59 0 0 0 1.837-1.282l-1.899-1.62zm6.029-6.971-6.029 6.971 1.905 1.621 6.029-6.971-1.905-1.621zm.546-.63-.546.631 1.905 1.621.546-.631-1.905-1.621zm8.488-.299c-1.809 0-3.557-.237-5.224-.678l-.649 2.407c1.871.495 3.844.759 5.872.759v-2.488zm-6.583 1.919c.143-.17.417-.264.71-.19l.649-2.407c-1.147-.305-2.431.014-3.257.97l1.898 1.627zm-13.84-12.063c-.205-.42-.13-.902.157-1.227l1.905 1.621c.348-.4.444-.99.191-1.492l-2.253 1.098zM121.852 81.551c0 2.277-1.858 4.123-4.151 4.123-2.293 0-4.151-1.846-4.151-4.123s1.858-4.123 4.151-4.123c2.293 0 4.151 1.846 4.151 4.123z" data-color="2"/></svg>