<svg xmlns="http://www.w3.org/2000/svg" width="200" height="200" aria-hidden="true" data-bbox="20 20 160 160" data-type="color" viewBox="20 20 160 160"><defs><style>#comp-lsiyr9ws svg [data-color=&quot;1&quot;]{fill:#1b1a55}#comp-lsiyr9ws svg [data-color=&quot;2&quot;]{fill:#0a2323}</style></defs><path fill="#1b1a55" d="M100 180c-44.187 0-80-35.813-80-80s35.813-80 80-80 80 35.813 80 80-35.813 80-80 80z" data-color="1"/><path fill="#9290c3" d="M120.929 136.5H79.113c-1.415 0-2.56-1.226-2.56-2.732V91.15c0-.243-.141-.364-.171-.364h-5.928c-1.2 0-2.229-.868-2.499-2.118l-2.884-11.06c-.288-1.335.331-2.647 1.47-3.169l23.303-10.702a2.204 2.204 0 0 1 1.262-.176l4.618.71c2.866.473 5.751.48 8.598 0 5.095-.826 5.095-.826 5.426-.728.129.036.135.036 23.713 10.896 1.133.522 1.752 1.833 1.476 3.12l-2.909 11.157c-.251 1.196-1.28 2.07-2.486 2.07h-5.867c-.031 0-.171.121-.171.364v42.624c-.015 1.5-1.167 2.726-2.575 2.726zM90.73 65.898l-23.192 10.69c-.092.042-.196.249-.147.48l2.884 11.06c.049.219.147.291.171.291h5.928c1.409 0 2.56 1.226 2.56 2.732v42.624c0 .249.141.364.178.364h41.816c.031 0 .171-.121.171-.364V91.15c0-1.505 1.151-2.732 2.56-2.732h5.867c.018 0 .122-.061.159-.243l2.909-11.163c.037-.182-.067-.388-.159-.431-7.416-3.417-21.061-9.7-23.229-10.689-1.066.152-4.507.71-4.507.71a28.552 28.552 0 0 1-9.37 0l-4.599-.704z" data-color="2"/><path fill="#9290c3" d="M87.491 83.192h6.963a.83.83 0 0 1 .833.826v8.34l-4.048 1.287a.901.901 0 0 1-.539 0l-4.048-1.287v-8.34a.84.84 0 0 1 .839-.826z" data-color="2"/></svg>