<svg xmlns="http://www.w3.org/2000/svg" width="200" height="200" aria-label="homepage" data-bbox="27.505 20 144.99 160.001" data-type="color" viewBox="27.505 20 144.99 160.001"><defs><style>#comp-lsbwebxo svg [data-color=&quot;1&quot;]{fill:#fffdf2}</style></defs><path fill="#fffdf2" d="m108.65 27.127 4.567 17.328c2.543 9.619 6.958 17.998 12.985 24.805 6.027 6.807 13.558 11.927 22.334 15.079l17.767 6.352c8.256 2.977 8.256 15.641 0 18.618l-17.767 6.352c-8.776 3.152-16.307 8.272-22.334 15.079-6.027 6.807-10.441 15.185-12.985 24.805l-4.567 17.328c-2.489 9.503-14.91 9.503-17.399 0l-4.522-17.27c-2.543-9.619-6.958-18.056-12.985-24.863-6.027-6.807-13.558-11.927-22.28-15.079l-17.767-6.352c-8.256-2.977-8.256-15.641 0-18.618l17.767-6.352c8.776-3.152 16.307-8.272 22.28-15.079 6.027-6.807 10.441-15.185 12.985-24.805l4.567-17.328c2.444-9.503 14.856-9.503 17.354 0z" data-color="1"/></svg>