<svg xmlns="http://www.w3.org/2000/svg" viewBox="0 0 50 50">
  <path d="M25 1.015625L14.308594 11.28125C14.046875 11.527344 13.9375 11.894531 14.023438 12.242188C14.109375 12.589844 14.375 12.867188 14.71875 12.964844C15.066406 13.066406 15.4375 12.972656 15.691406 12.71875L24 4.746094L24 48C23.996094 48.359375 24.183594 48.695313 24.496094 48.878906C24.808594 49.058594 25.191406 49.058594 25.503906 48.878906C25.816406 48.695313 26.003906 48.359375 26 48L26 4.746094L34.308594 12.71875C34.5625 12.972656 34.933594 13.066406 35.28125 12.964844C35.625 12.867188 35.890625 12.589844 35.976563 12.242188C36.0625 11.894531 35.953125 11.527344 35.691406 11.28125Z" fill="#f5f5f5" />
</svg>