<svg xmlns="http://www.w3.org/2000/svg" width="200" height="200" aria-hidden="true" data-bbox="20 20 160 160" data-type="color" viewBox="20 20 160 160"><defs><style>#comp-lsiyr9wt svg [data-color=&quot;1&quot;]{fill:#1b1a55}#comp-lsiyr9wt svg [data-color=&quot;2&quot;]{fill:#0a2323}</style></defs><path fill="#1b1a55" d="M100 180c-44.187 0-80-35.813-80-80s35.813-80 80-80 80 35.813 80 80-35.813 80-80 80z" data-color="1"/><path fill="#9290c3" d="M99.869 136.494c-3.785 0-7.488-.73-11.002-2.161a28.735 28.735 0 0 1-9.445-6.242 26.254 26.254 0 0 1-6.083-9.139 25.98 25.98 0 0 1-1.81-10.815c.212-6.727 2.733-13.221 7.711-19.849l19.348-24.082c.165-.216.376-.397.617-.514l.282-.146.511-.047c.264 0 .529.058.764.175l.282.14.364.397 19.331 24.047c5.002 6.663 7.523 13.156 7.735 19.884a26.077 26.077 0 0 1-1.81 10.815 26.199 26.199 0 0 1-6.083 9.139 28.797 28.797 0 0 1-9.445 6.242c-3.55 1.448-7.3 2.061-11.132 2.161h-.012c-.041-.005-.082-.005-.123-.005zm.123-2.604h.018c3.568.006 6.9-.648 10.133-1.968s6.124-3.229 8.593-5.676a23.546 23.546 0 0 0 5.495-8.251 23.394 23.394 0 0 0 1.634-9.74c-.194-6.213-2.545-12.222-7.188-18.406l-18.678-23.23-18.703 23.264c-4.614 6.149-6.971 12.158-7.159 18.336-.153 3.375.4 6.657 1.634 9.775a23.634 23.634 0 0 0 5.484 8.24 26.065 26.065 0 0 0 8.604 5.688c3.233 1.32 6.595 2.003 10.133 1.968zm-.623-68.054.012.012-.012-.012z" data-color="2"/><path fill="#9290c3" d="m85.98 74.981.517 1.799a6.111 6.111 0 0 0 1.469 2.575 6.14 6.14 0 0 0 2.527 1.565l2.01.66c.934.309.934 1.623 0 1.933l-2.01.66a6.14 6.14 0 0 0-2.527 1.565 6.113 6.113 0 0 0-1.469 2.575l-.517 1.799c-.282.987-1.687.987-1.969 0l-.511-1.794a6.139 6.139 0 0 0-1.469-2.581 6.157 6.157 0 0 0-2.521-1.565l-2.01-.66c-.935-.309-.935-1.623 0-1.933l2.01-.66a6.08 6.08 0 0 0 2.521-1.565 6.113 6.113 0 0 0 1.469-2.575l.517-1.799c.277-.986 1.681-.986 1.963.001z" data-color="2"/></svg>